# xmcd
#
# Track frame offsets:
#	150
#	12620
#	28276
#	41225
#	53030
#	70195
#	81665
#	94262
#	108508
#	127186
#
# Disc length: 1885 seconds
#
# Revision: 0
# Processed by: cddbd v1.5.1PL0 Copyright (c) Steve Scherf et al.
# Submitted via: dBpowerAMP V4.0
#
DISCID=96075b0a
DTITLE=Jim Murphy and The Pine Barons - Newbilly Music
DYEAR=1900
DGENRE=Bluegrass
TTITLE0=Red Wing
TTITLE1=Newbilly Music
TTITLE2=Broke...Ain't Got A Dime
TTITLE3=Sally Daisy
TTITLE4=Stephen Foster Suite
TTITLE5=Wreck of the Old '97
TTITLE6=Calling You
TTITLE7=The Boy From Alabama
TTITLE8=A Feeling Called the Blues
TTITLE9=I Am the Resurrection
EXTD=
EXTT0=
EXTT1=
EXTT2=
EXTT3=
EXTT4=
EXTT5=
EXTT6=
EXTT7=
EXTT8=
EXTT9=
PLAYORDER=
